<svg preserveAspectRatio="none" overflow="visible" style="display: block;" width="29.0008" height="29" viewBox="0 0 29.0008 29" fill="none" xmlns="http://www.w3.org/2000/svg">
<path id="Vector" d="M26.3157 0.123338C27.9104 -0.453052 29.4539 1.09039 28.8775 2.68507L19.8378 27.678C19.2598 29.2791 17.0759 29.4728 16.2241 28.0014L11.4497 19.7558C11.5522 19.6925 11.6473 19.6179 11.7331 19.5333L19.7385 11.5279C20.0301 11.2259 20.1915 10.8214 20.1879 10.4016C20.1842 9.98185 20.0158 9.58028 19.719 9.28342C19.4221 8.98657 19.0206 8.81819 18.6008 8.81454C18.181 8.81089 17.7765 8.97227 17.4746 9.26392L9.46914 17.2693C9.38406 17.3545 9.30887 17.4491 9.24499 17.5511L0.999411 12.7767C-0.473585 11.9249 -0.278253 9.74264 1.32123 9.16305L26.3157 0.123338Z" fill="#FFE250"/>
</svg>
