<svg preserveAspectRatio="none" overflow="visible" style="display: block;" width="56.6667" height="39.6667" viewBox="0 0 56.6667 39.6667" fill="none" xmlns="http://www.w3.org/2000/svg">
<path id="Vector" d="M19.8333 24.7917C13.2033 24.7917 0 28.1067 0 34.7083V39.6667H39.6667V34.7083C39.6667 28.1067 26.4633 24.7917 19.8333 24.7917ZM6.63 34C9.01 32.3567 14.7617 30.4583 19.8333 30.4583C24.905 30.4583 30.6567 32.3567 33.0367 34H6.63ZM19.8333 19.8333C25.3017 19.8333 29.75 15.385 29.75 9.91667C29.75 4.44833 25.3017 0 19.8333 0C14.365 0 9.91667 4.44833 9.91667 9.91667C9.91667 15.385 14.365 19.8333 19.8333 19.8333ZM19.8333 5.66667C22.185 5.66667 24.0833 7.565 24.0833 9.91667C24.0833 12.2683 22.185 14.1667 19.8333 14.1667C17.4817 14.1667 15.5833 12.2683 15.5833 9.91667C15.5833 7.565 17.4817 5.66667 19.8333 5.66667ZM39.78 24.9617C43.0667 27.3417 45.3333 30.515 45.3333 34.7083V39.6667H56.6667V34.7083C56.6667 28.985 46.75 25.7267 39.78 24.9617ZM36.8333 19.8333C42.3017 19.8333 46.75 15.385 46.75 9.91667C46.75 4.44833 42.3017 0 36.8333 0C35.3033 0 33.8867 0.368333 32.5833 0.991666C34.3683 3.51333 35.4167 6.60167 35.4167 9.91667C35.4167 13.2317 34.3683 16.32 32.5833 18.8417C33.8867 19.465 35.3033 19.8333 36.8333 19.8333Z" fill="#F6F6F6"/>
</svg>
